<?xml version="1.0" standalone="no"?>
<!DOCTYPE svg PUBLIC "-//W3C//DTD SVG 20010904//EN"
 "http://www.w3.org/TR/2001/REC-SVG-20010904/DTD/svg10.dtd">
<svg version="1.0" xmlns="http://www.w3.org/2000/svg"
 width="260.000000pt" height="260.000000pt" viewBox="0 0 260.000000 260.000000"
 preserveAspectRatio="xMidYMid meet">
<metadata>
Created by potrace 1.14, written by Peter Selinger 2001-2017
</metadata>
<g transform="translate(0.000000,260.000000) scale(0.100000,-0.100000)"
fill="#000000" stroke="none">
<path d="M1132 2525 c-24 -5 -54 -20 -68 -32 -22 -20 -24 -29 -24 -108 0 -78
-2 -88 -25 -110 -13 -14 -31 -25 -39 -25 -9 0 -57 -18 -108 -41 -51 -22 -100
-42 -110 -44 -10 -2 -43 22 -83 61 -54 51 -74 64 -99 64 -86 0 -296 -207 -296
-291 0 -23 15 -46 65 -99 74 -79 74 -79 25 -180 -15 -30 -35 -78 -44 -107 -10
-28 -24 -57 -32 -64 -9 -8 -47 -14 -89 -15 -110 -2 -123 -8 -147 -60 -14 -33
-21 -74 -23 -142 -5 -118 11 -204 44 -238 21 -21 31 -24 101 -24 105 0 123 -8
139 -62 7 -23 29 -79 50 -123 20 -44 36 -86 35 -92 -1 -7 -2 -17 -3 -23 0 -5
-22 -31 -47 -57 -66 -69 -77 -88 -70 -124 17 -88 214 -279 288 -279 27 0 79
38 125 91 36 42 63 43 140 7 37 -18 94 -42 126 -52 32 -11 63 -28 68 -38 6
-11 10 -43 9 -71 -3 -92 0 -105 26 -136 14 -17 28 -30 32 -29 4 1 21 -1 37 -5
17 -4 54 -9 83 -11 l52 -5 0 297 0 297 -38 1 c-193 4 -397 125 -510 301 -103
161 -126 381 -60 564 37 101 74 157 157 239 111 110 238 171 390 187 l61 6 0
293 0 293 -48 -1 c-26 -1 -67 -7 -90 -13z"/>
<path d="M1344 1303 l1 -1238 275 0 c151 -1 299 3 328 7 213 33 323 255 336
672 1 56 5 58 113 71 86 9 138 38 162 88 34 70 22 100 -130 333 -132 202 -139
220 -154 379 -3 33 -8 67 -10 75 -2 8 -7 37 -10 65 -16 140 -87 305 -180 417
-144 174 -407 321 -629 353 -23 4 -55 8 -72 11 l-32 5 2 -1238z m752 196 c62
-58 52 -156 -19 -199 -98 -60 -217 31 -187 142 25 88 140 119 206 57z"/>
</g>
</svg>
